<?xml version="1.0" encoding="UTF-8" standalone="no"?>
<!-- Created with Inkscape (http://www.inkscape.org/) -->

<svg
   xmlns:dc="http://purl.org/dc/elements/1.1/"
   xmlns:cc="http://creativecommons.org/ns#"
   xmlns:rdf="http://www.w3.org/1999/02/22-rdf-syntax-ns#"
   xmlns:svg="http://www.w3.org/2000/svg"
   xmlns="http://www.w3.org/2000/svg"
   xmlns:sodipodi="http://sodipodi.sourceforge.net/DTD/sodipodi-0.dtd"
   xmlns:inkscape="http://www.inkscape.org/namespaces/inkscape"
   width="210mm"
   height="297mm"
   viewBox="0 0 744.09448819 1052.3622047"
   id="svg2"
   version="1.1"
   inkscape:version="0.91 r13725"
   sodipodi:docname="casa-donacionessvg.svg">
  <defs
     id="defs4" />
  <sodipodi:namedview
     id="base"
     pagecolor="#ffffff"
     bordercolor="#666666"
     borderopacity="1.0"
     inkscape:pageopacity="0.0"
     inkscape:pageshadow="2"
     inkscape:zoom="0.35"
     inkscape:cx="-81.834309"
     inkscape:cy="404.16108"
     inkscape:document-units="px"
     inkscape:current-layer="layer1"
     showgrid="false"
     inkscape:window-width="1920"
     inkscape:window-height="1015"
     inkscape:window-x="0"
     inkscape:window-y="1920"
     inkscape:window-maximized="1" />
  <metadata
     id="metadata7">
    <rdf:RDF>
      <cc:Work
         rdf:about="">
        <dc:format>image/svg+xml</dc:format>
        <dc:type
           rdf:resource="http://purl.org/dc/dcmitype/StillImage" />
        <dc:title />
      </cc:Work>
    </rdf:RDF>
  </metadata>
  <g
     inkscape:label="Capa 1"
     inkscape:groupmode="layer"
     id="layer1">
    <text
       sodipodi:linespacing="125%"
       id="text3348"
       y="-262.30042"
       x="1115.6859"
       style="font-style:normal;font-variant:normal;font-weight:500;font-stretch:normal;font-size:28.99612427px;line-height:125%;font-family:'Brandon Text';-inkscape-font-specification:'Brandon Text, Medium';text-align:start;letter-spacing:0px;word-spacing:0px;writing-mode:lr-tb;text-anchor:start;fill:#ffffff;fill-opacity:1;stroke:none;stroke-width:1px;stroke-linecap:butt;stroke-linejoin:miter;stroke-opacity:1"
       xml:space="preserve"><tspan
         y="-262.30042"
         x="1115.6859"
         id="tspan3350"
         sodipodi:role="line">LO UNICO QUE INTERFIERE</tspan></text>
    <text
       xml:space="preserve"
       style="font-style:normal;font-variant:normal;font-weight:500;font-stretch:normal;font-size:54.37154007px;line-height:125%;font-family:'Brandon Text';-inkscape-font-specification:'Brandon Text, Medium';text-align:start;letter-spacing:0px;word-spacing:0px;writing-mode:lr-tb;text-anchor:start;fill:#ffffff;fill-opacity:1;stroke:none;stroke-width:1px;stroke-linecap:butt;stroke-linejoin:miter;stroke-opacity:1"
       x="1244.3152"
       y="-212.01125"
       id="text4291"
       sodipodi:linespacing="125%"><tspan
         sodipodi:role="line"
         id="tspan4293"
         x="1244.3152"
         y="-212.01125">APRENDIZAJE</tspan></text>
    <text
       xml:space="preserve"
       style="font-style:normal;font-variant:normal;font-weight:500;font-stretch:normal;font-size:28.99612427px;line-height:125%;font-family:'Brandon Text';-inkscape-font-specification:'Brandon Text, Medium';text-align:start;letter-spacing:0px;word-spacing:0px;writing-mode:lr-tb;text-anchor:start;fill:#ffffff;fill-opacity:1;stroke:none;stroke-width:1px;stroke-linecap:butt;stroke-linejoin:miter;stroke-opacity:1"
       x="1135.6859"
       y="-212.6209"
       id="text4295"
       sodipodi:linespacing="125%"><tspan
         sodipodi:role="line"
         id="tspan4297"
         x="1135.6859"
         y="-212.6209">CON MI</tspan></text>
    <text
       sodipodi:linespacing="125%"
       id="text4299"
       y="-147.11076"
       x="1201.9707"
       style="font-style:normal;font-variant:normal;font-weight:500;font-stretch:normal;font-size:67.52939606px;line-height:125%;font-family:'Brandon Text';-inkscape-font-specification:'Brandon Text, Medium';text-align:start;letter-spacing:0px;word-spacing:0px;writing-mode:lr-tb;text-anchor:start;fill:#ffffff;fill-opacity:1;stroke:none;stroke-width:1px;stroke-linecap:butt;stroke-linejoin:miter;stroke-opacity:1"
       xml:space="preserve"><tspan
         y="-147.11076"
         x="1201.9707"
         id="tspan4301"
         sodipodi:role="line">EDUCACION</tspan></text>
    <flowRoot
       style="font-style:normal;font-variant:normal;font-weight:normal;font-stretch:normal;font-size:46.64471817px;line-height:125%;font-family:'Brandon Text';-inkscape-font-specification:'Brandon Text';text-align:center;letter-spacing:0px;word-spacing:0px;writing-mode:lr-tb;text-anchor:middle;fill:#000000;fill-opacity:1;stroke:none;stroke-width:1px;stroke-linecap:butt;stroke-linejoin:miter;stroke-opacity:1;"
       id="flowRoot4307"
       xml:space="preserve"
       transform="matrix(0.9107568,0,0,0.9107568,-1004.2493,-184.62145)"><flowRegion
         id="flowRegion4309"><rect
           style="font-style:normal;font-variant:normal;font-weight:normal;font-stretch:normal;font-size:46.64471817px;line-height:125%;font-family:'Brandon Text';-inkscape-font-specification:'Brandon Text';text-align:center;writing-mode:lr-tb;text-anchor:middle;fill:#000000;"
           y="236.36523"
           x="1144.5967"
           height="187.14394"
           width="740.95093"
           id="rect4311" /></flowRegion><flowPara
         id="flowPara4313">SOMOS UN PROYECTO GRATUITO, AUTOGESTIONADO Y SIN FINES DE LUCRO.</flowPara></flowRoot>    <flowRoot
       style="font-style:normal;font-variant:normal;font-weight:500;font-stretch:normal;font-size:46.64471817px;line-height:125%;font-family:'Brandon Text';-inkscape-font-specification:'Brandon Text, Medium';text-align:center;letter-spacing:0px;word-spacing:0px;writing-mode:lr-tb;text-anchor:middle;fill:#000000;fill-opacity:1;stroke:none;stroke-width:1px;stroke-linecap:butt;stroke-linejoin:miter;stroke-opacity:1"
       id="flowRoot5430"
       xml:space="preserve"
       transform="translate(-1138.0391,456.83827)"><flowRegion
         id="flowRegion5432"><rect
           style="font-style:normal;font-variant:normal;font-weight:500;font-stretch:normal;font-size:46.64471817px;line-height:125%;font-family:'Brandon Text';-inkscape-font-specification:'Brandon Text, Medium';text-align:center;writing-mode:lr-tb;text-anchor:middle;fill:#000000"
           y="236.36523"
           x="1144.5967"
           height="250.69434"
           width="722.15179"
           id="rect5434" /></flowRegion><flowPara
         id="flowPara5436" /></flowRoot>    <flowRoot
       xml:space="preserve"
       id="flowRoot5487"
       style="font-style:normal;font-variant:normal;font-weight:500;font-stretch:normal;font-size:42.48199463px;line-height:125%;font-family:'Brandon Text';-inkscape-font-specification:'Brandon Text Medium';text-align:center;letter-spacing:0px;word-spacing:0px;writing-mode:lr-tb;text-anchor:middle;fill:#000000;fill-opacity:1;stroke:none;stroke-width:1px;stroke-linecap:butt;stroke-linejoin:miter;stroke-opacity:1"
       transform="matrix(1.4335683,0,0,1.4335683,-162.82235,-102.66297)"><flowRegion
         id="flowRegion5489"><rect
           id="rect5491"
           width="674.82611"
           height="170.44261"
           x="38.199909"
           y="234.70061"
           style="font-style:normal;font-variant:normal;font-weight:500;font-stretch:normal;font-size:42.48199463px;line-height:125%;font-family:'Brandon Text';-inkscape-font-specification:'Brandon Text Medium';text-align:center;writing-mode:lr-tb;text-anchor:middle;fill:#000000" /></flowRegion><flowPara
         id="flowPara5493">¡PODES AYUDARNOS </flowPara><flowPara
         id="flowPara5495">CON UNA DONACION!</flowPara></flowRoot>    <flowRoot
       transform="matrix(0.9107568,0,0,0.9107568,-1165.6779,199.66426)"
       xml:space="preserve"
       id="flowRoot5497"
       style="font-style:normal;font-variant:normal;font-weight:normal;font-stretch:normal;font-size:46.64471817px;line-height:125%;font-family:'Brandon Text';-inkscape-font-specification:'Brandon Text';text-align:center;letter-spacing:0px;word-spacing:0px;writing-mode:lr-tb;text-anchor:middle;fill:#000000;fill-opacity:1;stroke:none;stroke-width:1px;stroke-linecap:butt;stroke-linejoin:miter;stroke-opacity:1"><flowRegion
         id="flowRegion5499"><rect
           id="rect5501"
           width="740.95093"
           height="187.14394"
           x="1144.5967"
           y="236.36523"
           style="font-style:normal;font-variant:normal;font-weight:normal;font-stretch:normal;font-size:46.64471817px;line-height:125%;font-family:'Brandon Text';-inkscape-font-specification:'Brandon Text';text-align:center;writing-mode:lr-tb;text-anchor:middle;fill:#000000" /></flowRegion><flowPara
         id="flowPara5503">NECESITAMOS:</flowPara></flowRoot>    <path
       sodipodi:nodetypes="scssccscscscsssscscccssscsccsccss"
       inkscape:connector-curvature="0"
       id="path3763-0"
       d="m 103.82082,927.55217 c -0.29884,-0.0277 -0.60862,0.0159 -0.9694,0.10635 -2.871287,0.72066 -3.886277,2.24489 -3.478177,5.2223 0.1991,1.45257 0.807347,3.49492 1.351727,4.5389 0.54439,1.04399 0.99143,2.05961 0.99348,2.25691 0.002,0.1973 -1.770357,1.49788 -3.938787,2.89012 -4.439716,2.85061 -6.099575,5.54871 -5.073762,8.24683 0.892769,2.34816 5.900642,3.04775 9.819369,1.37184 1.01034,-0.43211 1.12394,-0.018 1.12394,4.10335 0,3.58174 0.22147,4.66978 1.01254,4.97338 0.55692,0.2137 1.27214,1.0718 1.58957,1.9067 0.662,1.7412 3.45139,2.1232 4.05319,0.5549 0.20332,-0.5298 0.81179,-0.9633 1.35273,-0.9633 0.54095,0 0.98345,-0.4335 0.98345,-0.9634 0,-0.5298 0.23773,-0.9634 0.52784,-0.9634 0.29011,0 0.59614,-1.51054 0.68038,-3.35672 0.0842,-1.84618 0.27386,-3.47806 0.42148,-3.62572 0.14763,-0.14761 1.57443,0.23121 3.1711,0.84098 1.82321,0.6963 3.80014,0.97807 5.31361,0.75862 1.32541,-0.19221 2.91163,-0.35991 3.52534,-0.37327 1.05842,-0.0231 1.18719,-1.73145 0.5459,-7.24939 -0.0308,-0.26491 -0.42573,-0.48169 -0.87707,-0.48169 -0.45134,0 -1.31482,-0.57802 -1.91972,-1.28449 -0.6049,-0.70647 -1.51964,-1.2845 -2.03211,-1.2845 -1.81882,0 -1.60542,-1.17166 0.6593,-3.62069 1.26206,-1.3647 2.83984,-3.53668 3.50628,-4.82687 1.20184,-2.32674 1.20098,-2.36019 -0.15755,-4.08732 -1.22582,-1.55836 -1.66385,-1.70099 -4.16759,-1.35777 -2.64125,0.36202 -5.11865,1.69374 -8.37532,4.50175 -1.17439,1.01259 -1.59967,1.08566 -2.40843,0.41448 -0.54021,-0.44834 -0.98824,-1.1411 -0.99548,-1.53939 -0.007,-0.3983 -1.2537,-2.14172 -2.7697,-3.87455 -1.77446,-2.02833 -2.57163,-2.75232 -3.46813,-2.83494 z"
       style="fill:#cb0000;fill-opacity:1" />
    <flowRoot
       transform="matrix(1.152204,0,0,1.152204,-243.31713,574.11545)"
       style="font-style:normal;font-variant:normal;font-weight:500;font-stretch:normal;font-size:42.48199463px;line-height:125%;font-family:'Brandon Text';-inkscape-font-specification:'Brandon Text Medium';text-align:center;letter-spacing:0px;word-spacing:0px;writing-mode:lr-tb;text-anchor:middle;fill:#000000;fill-opacity:1;stroke:none;stroke-width:1px;stroke-linecap:butt;stroke-linejoin:miter;stroke-opacity:1"
       id="flowRoot5520"
       xml:space="preserve"><flowRegion
         id="flowRegion5522"><rect
           style="font-style:normal;font-variant:normal;font-weight:500;font-stretch:normal;font-size:42.48199463px;line-height:125%;font-family:'Brandon Text';-inkscape-font-specification:'Brandon Text Medium';text-align:center;writing-mode:lr-tb;text-anchor:middle;fill:#000000"
           y="234.70061"
           x="38.199909"
           height="170.44261"
           width="674.82611"
           id="rect5524" /></flowRegion><flowPara
         id="flowPara5528">CONTACTOS:</flowPara></flowRoot>    <flowRoot
       xml:space="preserve"
       id="flowRoot5532"
       style="font-style:normal;font-variant:normal;font-weight:normal;font-stretch:normal;font-size:59.92996216px;line-height:125%;font-family:'Brandon Text';-inkscape-font-specification:'Brandon Text';text-align:center;letter-spacing:0px;word-spacing:0px;writing-mode:lr-tb;text-anchor:middle;fill:#000000;fill-opacity:1;stroke:none;stroke-width:1px;stroke-linecap:butt;stroke-linejoin:miter;stroke-opacity:1"
       transform="matrix(0.82219883,0,0,0.82219883,-24.789219,144.06657)"><flowRegion
         id="flowRegion5534"><rect
           id="rect5536"
           width="1003.0115"
           height="381.6564"
           x="-59.204361"
           y="931.66644"
           style="font-style:normal;font-variant:normal;font-weight:normal;font-stretch:normal;font-size:59.92996216px;line-height:125%;font-family:'Brandon Text';-inkscape-font-specification:'Brandon Text';text-align:center;writing-mode:lr-tb;text-anchor:middle;fill:#000000" /></flowRegion><flowPara
         id="flowPara5538">apoyo@ualala.org</flowPara></flowRoot>    <path
       style="fill:#cb0000;fill-opacity:1"
       d="m 103.82082,989.17144 c -0.29884,-0.028 -0.60862,0.016 -0.9694,0.1064 -2.871287,0.7206 -3.886277,2.2449 -3.478177,5.2223 0.1991,1.4526 0.807347,3.4949 1.351727,4.5389 0.54439,1.04396 0.99143,2.05956 0.99348,2.25686 0.002,0.1973 -1.770357,1.4979 -3.938787,2.8901 -4.439716,2.8506 -6.099575,5.5487 -5.073762,8.2468 0.892769,2.3482 5.900642,3.0478 9.819369,1.3719 1.01034,-0.4321 1.12394,-0.018 1.12394,4.1033 0,3.5818 0.22147,4.6698 1.01254,4.9734 0.55692,0.2137 1.27214,1.0718 1.58957,1.9067 0.662,1.7412 3.45139,2.1232 4.05319,0.5549 0.20332,-0.5298 0.81179,-0.9633 1.35273,-0.9633 0.54095,0 0.98345,-0.4335 0.98345,-0.9634 0,-0.5298 0.23773,-0.9634 0.52784,-0.9634 0.29011,0 0.59614,-1.5105 0.68038,-3.3567 0.0842,-1.8462 0.27386,-3.4781 0.42148,-3.6257 0.14763,-0.1476 1.57443,0.2312 3.1711,0.841 1.82321,0.6963 3.80014,0.978 5.31361,0.7586 1.32541,-0.1922 2.91163,-0.3599 3.52534,-0.3733 1.05842,-0.023 1.18719,-1.7314 0.5459,-7.2494 -0.0308,-0.2649 -0.42573,-0.4817 -0.87707,-0.4817 -0.45134,0 -1.31482,-0.578 -1.91972,-1.2845 -0.6049,-0.7064 -1.51964,-1.2845 -2.03211,-1.2845 -1.81882,0 -1.60542,-1.1716 0.6593,-3.6207 1.26206,-1.3647 2.83984,-3.53656 3.50628,-4.82676 1.20184,-2.3268 1.20098,-2.3602 -0.15755,-4.0873 -1.22582,-1.5584 -1.66385,-1.701 -4.16759,-1.3578 -2.64125,0.362 -5.11865,1.6937 -8.37532,4.5017 -1.17439,1.0126 -1.59967,1.0857 -2.40843,0.4145 -0.54021,-0.4483 -0.98824,-1.1411 -0.99548,-1.5394 -0.007,-0.3983 -1.2537,-2.1417 -2.7697,-3.8745 -1.77446,-2.0284 -2.57163,-2.7523 -3.46813,-2.835 z"
       id="path5540"
       inkscape:connector-curvature="0"
       sodipodi:nodetypes="scssccscscscsssscscccssscsccsccss" />
    <flowRoot
       style="font-style:normal;font-variant:normal;font-weight:normal;font-stretch:normal;font-size:49.2743454px;line-height:125%;font-family:'Brandon Text';-inkscape-font-specification:'Brandon Text';text-align:center;letter-spacing:0px;word-spacing:0px;writing-mode:lr-tb;text-anchor:middle;fill:#000000;fill-opacity:1;stroke:none;stroke-width:1px;stroke-linecap:butt;stroke-linejoin:miter;stroke-opacity:1"
       id="flowRoot5542"
       xml:space="preserve"
       transform="translate(-39.395949,-17.172593)"><flowRegion
         id="flowRegion5544"><rect
           style="font-style:normal;font-variant:normal;font-weight:normal;font-stretch:normal;font-size:49.2743454px;line-height:125%;font-family:'Brandon Text';-inkscape-font-specification:'Brandon Text';text-align:center;writing-mode:lr-tb;text-anchor:middle;fill:#000000"
           y="995.94458"
           x="-73.466972"
           height="313.79745"
           width="824.67487"
           id="rect5546" /></flowRegion><flowPara
         id="flowPara5548">249 4020259</flowPara></flowRoot>    <flowRoot
       transform="matrix(0.49229123,0,0,0.49229123,384.77065,533.4157)"
       style="font-style:normal;font-variant:normal;font-weight:normal;font-stretch:normal;font-size:59.92996216px;line-height:125%;font-family:'Brandon Text';-inkscape-font-specification:'Brandon Text';text-align:center;letter-spacing:0px;word-spacing:0px;writing-mode:lr-tb;text-anchor:middle;fill:#000000;fill-opacity:1;stroke:none;stroke-width:1px;stroke-linecap:butt;stroke-linejoin:miter;stroke-opacity:1"
       id="flowRoot5550"
       xml:space="preserve"><flowRegion
         id="flowRegion5552"><rect
           style="font-style:normal;font-variant:normal;font-weight:normal;font-stretch:normal;font-size:59.92996216px;line-height:125%;font-family:'Brandon Text';-inkscape-font-specification:'Brandon Text';text-align:center;writing-mode:lr-tb;text-anchor:middle;fill:#000000"
           y="931.66644"
           x="-59.204361"
           height="381.6564"
           width="1003.0115"
           id="rect5554" /></flowRegion><flowPara
         id="flowPara5556">(Tambien WhatsApp!)</flowPara></flowRoot>  </g>
</svg>
