<?xml version="1.0" encoding="UTF-8" standalone="no"?>
<!-- Created with Inkscape (http://www.inkscape.org/) -->

<svg
   xmlns:dc="http://purl.org/dc/elements/1.1/"
   xmlns:cc="http://creativecommons.org/ns#"
   xmlns:rdf="http://www.w3.org/1999/02/22-rdf-syntax-ns#"
   xmlns:svg="http://www.w3.org/2000/svg"
   xmlns="http://www.w3.org/2000/svg"
   xmlns:sodipodi="http://sodipodi.sourceforge.net/DTD/sodipodi-0.dtd"
   xmlns:inkscape="http://www.inkscape.org/namespaces/inkscape"
   width="46.179176mm"
   height="19.199778mm"
   viewBox="0 0 163.627 68.030708"
   id="svg3581"
   version="1.1"
   inkscape:version="0.91 r13725"
   sodipodi:docname="footer.svg">
  <defs
     id="defs3583" />
  <sodipodi:namedview
     id="base"
     pagecolor="#ffffff"
     bordercolor="#666666"
     borderopacity="1.0"
     inkscape:pageopacity="0.0"
     inkscape:pageshadow="2"
     inkscape:zoom="1.4"
     inkscape:cx="31.6778"
     inkscape:cy="16.868769"
     inkscape:document-units="px"
     inkscape:current-layer="layer1"
     showgrid="false"
     fit-margin-top="0"
     fit-margin-left="0"
     fit-margin-right="0"
     fit-margin-bottom="0"
     inkscape:window-width="1920"
     inkscape:window-height="1015"
     inkscape:window-x="0"
     inkscape:window-y="1080"
     inkscape:window-maximized="1" />
  <metadata
     id="metadata3586">
    <rdf:RDF>
      <cc:Work
         rdf:about="">
        <dc:format>image/svg+xml</dc:format>
        <dc:type
           rdf:resource="http://purl.org/dc/dcmitype/StillImage" />
        <dc:title></dc:title>
      </cc:Work>
    </rdf:RDF>
  </metadata>
  <g
     inkscape:label="Capa 1"
     inkscape:groupmode="layer"
     id="layer1"
     transform="translate(-319.96334,-209.73923)">
    <g
       style="font-style:normal;font-variant:normal;font-weight:500;font-stretch:normal;font-size:10.85929871px;line-height:125%;font-family:'Brandon Text';-inkscape-font-specification:'Brandon Text, Medium';text-align:start;letter-spacing:0px;word-spacing:0px;writing-mode:lr-tb;text-anchor:start;fill:#000000;fill-opacity:1;stroke:none;stroke-width:1px;stroke-linecap:butt;stroke-linejoin:miter;stroke-opacity:1"
       id="text4478-9"
       transform="matrix(1.802658,0,0,1.802658,-322.48938,-195.65155)">
      <path
         d="m 373.53926,246.68946 c 0,0.13031 0.10859,0.2389 0.2389,0.2389 l 0.32578,0 c 0.11945,0 0.2389,-0.10859 0.2389,-0.2389 l 0,-3.4424 c 0,0 0.58641,-0.71672 1.54202,-0.71672 0.77101,0 1.05336,0.55383 1.05336,1.50945 l 0,2.64967 c 0,0.13031 0.10859,0.2389 0.2389,0.2389 l 0.33664,0 c 0.11945,0 0.2389,-0.10859 0.2389,-0.2389 l 0,-2.64967 c 0,-1.46601 -0.56468,-2.23702 -1.8135,-2.23702 -1.00991,0 -1.59632,0.6407 -1.59632,0.6407 l 0,-2.87771 c 0,-0.11946 -0.11945,-0.23891 -0.2389,-0.23891 l -0.32578,0 c -0.13031,0 -0.2389,0.11945 -0.2389,0.23891 l 0,7.1237 z"
         style="font-style:normal;font-variant:normal;font-weight:normal;font-stretch:normal;font-family:'Brandon Text';-inkscape-font-specification:'Brandon Text';fill:#000000"
         id="path3706"
         inkscape:connector-curvature="0" />
      <path
         d="m 379.06732,244.409 c 0,1.43343 1.12936,2.63881 2.51935,2.63881 1.38999,0 2.51936,-1.20538 2.51936,-2.63881 0,-1.41171 -1.12937,-2.60623 -2.51936,-2.60623 -1.38999,0 -2.51935,1.19452 -2.51935,2.60623 z m 0.79273,0 c 0,-1.02077 0.73843,-1.87866 1.72662,-1.87866 0.9882,0 1.71577,0.85789 1.71577,1.87866 0,1.0425 -0.72757,1.91124 -1.71577,1.91124 -0.98819,0 -1.72662,-0.86874 -1.72662,-1.91124 z"
         style="font-style:normal;font-variant:normal;font-weight:normal;font-stretch:normal;font-family:'Brandon Text';-inkscape-font-specification:'Brandon Text';fill:#000000"
         id="path3708"
         inkscape:connector-curvature="0" />
      <path
         d="m 385.53454,246.68946 c 0,0.13031 0.10859,0.2389 0.2389,0.2389 l 0.32578,0 c 0.11945,0 0.23891,-0.10859 0.23891,-0.2389 l 0,-7.1237 c 0,-0.11946 -0.11946,-0.23891 -0.23891,-0.23891 l -0.32578,0 c -0.13031,0 -0.2389,0.11945 -0.2389,0.23891 l 0,7.1237 z"
         style="font-style:normal;font-variant:normal;font-weight:normal;font-stretch:normal;font-family:'Brandon Text';-inkscape-font-specification:'Brandon Text';fill:#000000"
         id="path3710"
         inkscape:connector-curvature="0" />
      <path
         d="m 387.69808,245.40806 c 0,1.00991 0.67328,1.63975 1.55288,1.63975 0.77101,0 1.29226,-0.38007 1.55288,-0.6407 l 0.0977,0.33664 c 0.0326,0.10859 0.076,0.18461 0.20632,0.18461 l 0.20633,0 c 0.13031,0 0.23891,-0.10859 0.23891,-0.2389 l 0,-2.77999 c 0,-1.47686 -0.27149,-2.1067 -1.55288,-2.1067 -0.82531,0 -1.47687,0.21719 -1.72663,0.32578 -0.11946,0.0543 -0.19547,0.11945 -0.15203,0.27148 l 0.10859,0.2932 c 0.0434,0.11946 0.10859,0.18461 0.2389,0.13032 0.22805,-0.076 0.80359,-0.29321 1.48773,-0.29321 0.71671,0 0.83616,0.45609 0.82531,1.37913 0,0 -0.54297,-0.16288 -1.07508,-0.16288 -1.29225,0 -2.00897,0.70585 -2.00897,1.66147 z m 0.79273,0 c 0,-0.6407 0.52125,-0.97734 1.21624,-0.97734 0.49953,0 0.90133,0.10859 1.06422,0.19547 l 0,1.02077 c -0.21719,0.32578 -0.76015,0.67328 -1.37913,0.67328 -0.55383,0 -0.90133,-0.40179 -0.90133,-0.91218 z"
         style="font-style:normal;font-variant:normal;font-weight:normal;font-stretch:normal;font-family:'Brandon Text';-inkscape-font-specification:'Brandon Text';fill:#000000"
         id="path3712"
         inkscape:connector-curvature="0" />
      <path
         d="m 392.9942,244.50674 c 0,2.35646 1.37913,4.07223 3.31209,4.88668 0.0977,0.0434 0.17374,0.0109 0.21718,-0.0869 l 0.11945,-0.2932 c 0.0652,-0.15203 0.0652,-0.19547 -0.0977,-0.27149 -1.67233,-0.71671 -2.86686,-2.17186 -2.86686,-4.23512 0,-2.89944 1.6832,-4.68036 4.28943,-4.68036 2.59537,0 3.93106,1.74835 3.93106,3.9745 0,1.46601 -0.71671,2.30217 -1.55288,2.30217 -0.48866,0 -0.78187,-0.27148 -0.78187,-1.32483 l 0,-2.31303 c 0,-0.10859 -0.0977,-0.20633 -0.20632,-0.20633 l -0.10859,0 c -0.30407,0 -0.29321,0.16289 -0.36922,0.46695 0,0 -0.38008,-0.57554 -1.24882,-0.57554 -1.11851,0 -1.93296,0.82531 -1.93296,2.26959 0,1.38999 0.80359,2.29131 1.90038,2.29131 0.66242,0 1.14023,-0.39093 1.36827,-0.84702 l 0.0869,0 c 0.11945,0.45609 0.49953,0.84702 1.24882,0.84702 1.5203,0 2.26959,-1.47686 2.26959,-2.91029 0,-2.61709 -1.67233,-4.58262 -4.58262,-4.58262 -3.05147,0 -4.99528,2.20444 -4.99528,5.28848 z m 3.39896,-0.076 c 0,-1.04249 0.55382,-1.60717 1.2814,-1.60717 0.80358,0 1.16194,0.60812 1.16194,0.60812 l 0,1.54202 c -0.11945,0.49952 -0.45609,1.02077 -1.1728,1.02077 -0.67328,0 -1.27054,-0.54296 -1.27054,-1.56374 z"
         style="font-style:normal;font-variant:normal;font-weight:normal;font-stretch:normal;font-family:'Brandon Text';-inkscape-font-specification:'Brandon Text';fill:#000000"
         id="path3714"
         inkscape:connector-curvature="0" />
      <path
         d="m 403.85706,244.85423 c 0,1.32484 0.3475,2.19358 1.79178,2.19358 0.90133,0 1.36828,-0.45609 1.55288,-0.65156 l 0.0977,0.31492 c 0.0326,0.13032 0.0869,0.21719 0.22804,0.21719 l 0.17375,0 c 0.11945,0 0.22805,-0.10859 0.22805,-0.2389 l 0,-4.53919 c 0,-0.11945 -0.1086,-0.23891 -0.22805,-0.23891 l -0.33664,0 c -0.13031,0 -0.22804,0.11946 -0.22804,0.23891 l 0,3.4424 c -0.22805,0.26062 -0.67328,0.72757 -1.42257,0.72757 -0.72757,0 -1.05335,-0.45609 -1.05335,-1.45515 l 0,-2.71482 c 0,-0.11945 -0.1086,-0.23891 -0.23891,-0.23891 l -0.32578,0 c -0.14117,0 -0.2389,0.11946 -0.2389,0.23891 l 0,2.70396 z"
         style="font-style:normal;font-variant:normal;font-weight:normal;font-stretch:normal;font-family:'Brandon Text';-inkscape-font-specification:'Brandon Text';fill:#000000"
         id="path3716"
         inkscape:connector-curvature="0" />
      <path
         d="m 409.2258,245.40806 c 0,1.00991 0.67327,1.63975 1.55288,1.63975 0.77101,0 1.29225,-0.38007 1.55288,-0.6407 l 0.0977,0.33664 c 0.0326,0.10859 0.076,0.18461 0.20633,0.18461 l 0.20632,0 c 0.13032,0 0.23891,-0.10859 0.23891,-0.2389 l 0,-2.77999 c 0,-1.47686 -0.27148,-2.1067 -1.55288,-2.1067 -0.82531,0 -1.47687,0.21719 -1.72663,0.32578 -0.11945,0.0543 -0.19547,0.11945 -0.15203,0.27148 l 0.10859,0.2932 c 0.0434,0.11946 0.1086,0.18461 0.23891,0.13032 0.22804,-0.076 0.80359,-0.29321 1.48772,-0.29321 0.71672,0 0.83617,0.45609 0.82531,1.37913 0,0 -0.54297,-0.16288 -1.07507,-0.16288 -1.29226,0 -2.00897,0.70585 -2.00897,1.66147 z m 0.79273,0 c 0,-0.6407 0.52124,-0.97734 1.21624,-0.97734 0.49953,0 0.90132,0.10859 1.06421,0.19547 l 0,1.02077 c -0.21719,0.32578 -0.76015,0.67328 -1.37913,0.67328 -0.55383,0 -0.90132,-0.40179 -0.90132,-0.91218 z"
         style="font-style:normal;font-variant:normal;font-weight:normal;font-stretch:normal;font-family:'Brandon Text';-inkscape-font-specification:'Brandon Text';fill:#000000"
         id="path3718"
         inkscape:connector-curvature="0" />
      <path
         d="m 414.78253,246.68946 c 0,0.13031 0.1086,0.2389 0.23891,0.2389 l 0.32578,0 c 0.11945,0 0.2389,-0.10859 0.2389,-0.2389 l 0,-7.1237 c 0,-0.11946 -0.11945,-0.23891 -0.2389,-0.23891 l -0.32578,0 c -0.13031,0 -0.23891,0.11945 -0.23891,0.23891 l 0,7.1237 z"
         style="font-style:normal;font-variant:normal;font-weight:normal;font-stretch:normal;font-family:'Brandon Text';-inkscape-font-specification:'Brandon Text';fill:#000000"
         id="path3720"
         inkscape:connector-curvature="0" />
      <path
         d="m 416.94608,245.40806 c 0,1.00991 0.67327,1.63975 1.55288,1.63975 0.77101,0 1.29225,-0.38007 1.55288,-0.6407 l 0.0977,0.33664 c 0.0326,0.10859 0.076,0.18461 0.20633,0.18461 l 0.20632,0 c 0.13032,0 0.23891,-0.10859 0.23891,-0.2389 l 0,-2.77999 c 0,-1.47686 -0.27148,-2.1067 -1.55288,-2.1067 -0.82531,0 -1.47687,0.21719 -1.72663,0.32578 -0.11945,0.0543 -0.19547,0.11945 -0.15203,0.27148 l 0.10859,0.2932 c 0.0434,0.11946 0.1086,0.18461 0.23891,0.13032 0.22804,-0.076 0.80359,-0.29321 1.48772,-0.29321 0.71671,0 0.83617,0.45609 0.82531,1.37913 0,0 -0.54297,-0.16288 -1.07507,-0.16288 -1.29226,0 -2.00897,0.70585 -2.00897,1.66147 z m 0.79273,0 c 0,-0.6407 0.52124,-0.97734 1.21624,-0.97734 0.49952,0 0.90132,0.10859 1.06421,0.19547 l 0,1.02077 c -0.21719,0.32578 -0.76015,0.67328 -1.37913,0.67328 -0.55383,0 -0.90132,-0.40179 -0.90132,-0.91218 z"
         style="font-style:normal;font-variant:normal;font-weight:normal;font-stretch:normal;font-family:'Brandon Text';-inkscape-font-specification:'Brandon Text';fill:#000000"
         id="path3722"
         inkscape:connector-curvature="0" />
      <path
         d="m 422.50282,246.68946 c 0,0.13031 0.10859,0.2389 0.2389,0.2389 l 0.32578,0 c 0.11945,0 0.2389,-0.10859 0.2389,-0.2389 l 0,-7.1237 c 0,-0.11946 -0.11945,-0.23891 -0.2389,-0.23891 l -0.32578,0 c -0.13031,0 -0.2389,0.11945 -0.2389,0.23891 l 0,7.1237 z"
         style="font-style:normal;font-variant:normal;font-weight:normal;font-stretch:normal;font-family:'Brandon Text';-inkscape-font-specification:'Brandon Text';fill:#000000"
         id="path3724"
         inkscape:connector-curvature="0" />
      <path
         d="m 424.66636,245.40806 c 0,1.00991 0.67328,1.63975 1.55288,1.63975 0.77101,0 1.29226,-0.38007 1.55288,-0.6407 l 0.0977,0.33664 c 0.0326,0.10859 0.076,0.18461 0.20633,0.18461 l 0.20633,0 c 0.13031,0 0.2389,-0.10859 0.2389,-0.2389 l 0,-2.77999 c 0,-1.47686 -0.27148,-2.1067 -1.55288,-2.1067 -0.8253,0 -1.47686,0.21719 -1.72663,0.32578 -0.11945,0.0543 -0.19546,0.11945 -0.15203,0.27148 l 0.1086,0.2932 c 0.0434,0.11946 0.10859,0.18461 0.2389,0.13032 0.22805,-0.076 0.80359,-0.29321 1.48772,-0.29321 0.71672,0 0.83617,0.45609 0.82531,1.37913 0,0 -0.54296,-0.16288 -1.07507,-0.16288 -1.29226,0 -2.00897,0.70585 -2.00897,1.66147 z m 0.79273,0 c 0,-0.6407 0.52125,-0.97734 1.21624,-0.97734 0.49953,0 0.90132,0.10859 1.06421,0.19547 l 0,1.02077 c -0.21718,0.32578 -0.76015,0.67328 -1.37913,0.67328 -0.55382,0 -0.90132,-0.40179 -0.90132,-0.91218 z"
         style="font-style:normal;font-variant:normal;font-weight:normal;font-stretch:normal;font-family:'Brandon Text';-inkscape-font-specification:'Brandon Text';fill:#000000"
         id="path3726"
         inkscape:connector-curvature="0" />
      <path
         d="m 429.9299,246.32024 c 0,0.39093 0.31492,0.72757 0.70585,0.72757 0.4018,0 0.71672,-0.33664 0.71672,-0.72757 0,-0.39094 -0.31492,-0.70586 -0.71672,-0.70586 -0.39093,0 -0.70585,0.31492 -0.70585,0.70586 z"
         style="font-style:normal;font-variant:normal;font-weight:normal;font-stretch:normal;font-family:'Brandon Text';-inkscape-font-specification:'Brandon Text';fill:#000000"
         id="path3728"
         inkscape:connector-curvature="0" />
      <path
         d="m 432.47301,244.409 c 0,1.43343 1.12937,2.63881 2.51936,2.63881 1.38999,0 2.51935,-1.20538 2.51935,-2.63881 0,-1.41171 -1.12936,-2.60623 -2.51935,-2.60623 -1.38999,0 -2.51936,1.19452 -2.51936,2.60623 z m 0.79273,0 c 0,-1.02077 0.73843,-1.87866 1.72663,-1.87866 0.98819,0 1.71577,0.85789 1.71577,1.87866 0,1.0425 -0.72758,1.91124 -1.71577,1.91124 -0.9882,0 -1.72663,-0.86874 -1.72663,-1.91124 z"
         style="font-style:normal;font-variant:normal;font-weight:normal;font-stretch:normal;font-family:'Brandon Text';-inkscape-font-specification:'Brandon Text';fill:#000000"
         id="path3730"
         inkscape:connector-curvature="0" />
      <path
         d="m 438.88594,246.68946 c 0,0.13031 0.10859,0.2389 0.2389,0.2389 l 0.32578,0 c 0.11945,0 0.2389,-0.10859 0.2389,-0.2389 l 0,-3.47498 c 0,0 0.39094,-0.6407 1.35742,-0.6407 0.2389,0 0.42351,0.0869 0.54296,0.14117 0.11945,0.0543 0.23891,0.0434 0.2932,-0.11945 l 0.14117,-0.39093 c 0.11945,-0.3475 -0.49953,-0.4018 -0.8796,-0.4018 -1.04249,0 -1.54202,0.6407 -1.54202,0.6407 l -0.0869,-0.35836 c -0.0326,-0.11945 -0.11945,-0.17375 -0.21718,-0.17375 l -0.17375,0 c -0.13031,0 -0.2389,0.11946 -0.2389,0.23891 l 0,4.53919 z"
         style="font-style:normal;font-variant:normal;font-weight:normal;font-stretch:normal;font-family:'Brandon Text';-inkscape-font-specification:'Brandon Text';fill:#000000"
         id="path3732"
         inkscape:connector-curvature="0" />
      <path
         d="m 443.41528,244.409 c 0,-0.97733 0.61898,-1.8678 1.61803,-1.8678 0.81445,0 1.32484,0.60812 1.32484,0.60812 l 0,2.74741 c 0,0 -0.57554,0.41265 -1.27054,0.41265 -0.95562,0 -1.67233,-0.81445 -1.67233,-1.90038 z m 3.74646,-2.25873 c 0,-0.11945 -0.11946,-0.23891 -0.24977,-0.23891 l -0.15203,0 c -0.13031,0 -0.18461,0.076 -0.2389,0.17375 l -0.076,0.22805 c 0,0 -0.59726,-0.51039 -1.49858,-0.51039 -1.36827,0 -2.34561,1.18366 -2.34561,2.61709 0,1.46601 0.99906,2.62795 2.37819,2.62795 0.8253,0 1.38999,-0.44523 1.38999,-0.44523 l 0,0.35836 c 0,1.1728 -0.60812,1.60717 -1.40085,1.60717 -0.55383,0 -0.9882,-0.30406 -1.25968,-0.5321 -0.11945,-0.10859 -0.24976,-0.10859 -0.32578,0.0109 l -0.21719,0.31492 c -0.0543,0.076 -0.0326,0.21718 0.0543,0.2932 0.26062,0.2389 0.95562,0.65156 1.74835,0.65156 1.14022,0 2.19358,-0.62984 2.19358,-2.34561 l 0,-4.81067 z"
         style="font-style:normal;font-variant:normal;font-weight:normal;font-stretch:normal;font-family:'Brandon Text';-inkscape-font-specification:'Brandon Text';fill:#000000"
         id="path3734"
         inkscape:connector-curvature="0" />
    </g>
    <g
       style="font-style:normal;font-variant:normal;font-weight:500;font-stretch:normal;font-size:10.85929871px;line-height:125%;font-family:'Brandon Text';-inkscape-font-specification:'Brandon Text, Medium';text-align:start;letter-spacing:0px;word-spacing:0px;writing-mode:lr-tb;text-anchor:start;fill:#000000;fill-opacity:1;stroke:none;stroke-width:1px;stroke-linecap:butt;stroke-linejoin:miter;stroke-opacity:1"
       id="text4487-8"
       transform="matrix(1.802658,0,0,1.802658,-322.48938,-195.65155)">
      <path
         d="m 373.48496,259.24741 c 0,1.32483 0.3475,2.19358 1.79178,2.19358 0.90133,0 1.36827,-0.4561 1.55288,-0.65156 l 0.0977,0.31492 c 0.0326,0.13031 0.0869,0.21718 0.22804,0.21718 l 0.17375,0 c 0.11945,0 0.22805,-0.10859 0.22805,-0.2389 l 0,-4.53919 c 0,-0.11945 -0.1086,-0.2389 -0.22805,-0.2389 l -0.33664,0 c -0.13031,0 -0.22804,0.11945 -0.22804,0.2389 l 0,3.4424 c -0.22805,0.26062 -0.67328,0.72757 -1.42257,0.72757 -0.72757,0 -1.05335,-0.45609 -1.05335,-1.45514 l 0,-2.71483 c 0,-0.11945 -0.1086,-0.2389 -0.23891,-0.2389 l -0.32578,0 c -0.14117,0 -0.2389,0.11945 -0.2389,0.2389 l 0,2.70397 z"
         style="font-style:normal;font-variant:normal;font-weight:normal;font-stretch:normal;font-family:'Brandon Text';-inkscape-font-specification:'Brandon Text';fill:#000000"
         id="path3681"
         inkscape:connector-curvature="0" />
      <path
         d="m 378.85369,259.80123 c 0,1.00992 0.67328,1.63976 1.55288,1.63976 0.77101,0 1.29226,-0.38008 1.55288,-0.6407 l 0.0977,0.33664 c 0.0326,0.10859 0.076,0.1846 0.20632,0.1846 l 0.20633,0 c 0.13031,0 0.23891,-0.10859 0.23891,-0.2389 l 0,-2.77998 c 0,-1.47687 -0.27149,-2.10671 -1.55288,-2.10671 -0.82531,0 -1.47687,0.21719 -1.72663,0.32578 -0.11945,0.0543 -0.19547,0.11946 -0.15203,0.27149 l 0.10859,0.2932 c 0.0434,0.11945 0.10859,0.1846 0.2389,0.13031 0.22805,-0.076 0.80359,-0.2932 1.48773,-0.2932 0.71671,0 0.83616,0.45609 0.82531,1.37913 0,0 -0.54297,-0.16289 -1.07508,-0.16289 -1.29225,0 -2.00897,0.70585 -2.00897,1.66147 z m 0.79273,0 c 0,-0.6407 0.52125,-0.97734 1.21624,-0.97734 0.49953,0 0.90133,0.1086 1.06422,0.19547 l 0,1.02078 c -0.21719,0.32577 -0.76015,0.67327 -1.37913,0.67327 -0.55383,0 -0.90133,-0.40179 -0.90133,-0.91218 z"
         style="font-style:normal;font-variant:normal;font-weight:normal;font-stretch:normal;font-family:'Brandon Text';-inkscape-font-specification:'Brandon Text';fill:#000000"
         id="path3683"
         inkscape:connector-curvature="0" />
      <path
         d="m 384.41043,261.08263 c 0,0.13031 0.10859,0.2389 0.23891,0.2389 l 0.32577,0 c 0.11946,0 0.23891,-0.10859 0.23891,-0.2389 l 0,-7.1237 c 0,-0.11945 -0.11945,-0.23891 -0.23891,-0.23891 l -0.32577,0 c -0.13032,0 -0.23891,0.11946 -0.23891,0.23891 l 0,7.1237 z"
         style="font-style:normal;font-variant:normal;font-weight:normal;font-stretch:normal;font-family:'Brandon Text';-inkscape-font-specification:'Brandon Text';fill:#000000"
         id="path3685"
         inkscape:connector-curvature="0" />
      <path
         d="m 386.57398,259.80123 c 0,1.00992 0.67327,1.63976 1.55288,1.63976 0.77101,0 1.29225,-0.38008 1.55288,-0.6407 l 0.0977,0.33664 c 0.0326,0.10859 0.076,0.1846 0.20633,0.1846 l 0.20632,0 c 0.13032,0 0.23891,-0.10859 0.23891,-0.2389 l 0,-2.77998 c 0,-1.47687 -0.27148,-2.10671 -1.55288,-2.10671 -0.82531,0 -1.47687,0.21719 -1.72663,0.32578 -0.11945,0.0543 -0.19547,0.11946 -0.15203,0.27149 l 0.10859,0.2932 c 0.0434,0.11945 0.1086,0.1846 0.23891,0.13031 0.22804,-0.076 0.80359,-0.2932 1.48772,-0.2932 0.71671,0 0.83617,0.45609 0.82531,1.37913 0,0 -0.54297,-0.16289 -1.07507,-0.16289 -1.29226,0 -2.00897,0.70585 -2.00897,1.66147 z m 0.79273,0 c 0,-0.6407 0.52124,-0.97734 1.21624,-0.97734 0.49953,0 0.90132,0.1086 1.06421,0.19547 l 0,1.02078 c -0.21719,0.32577 -0.76015,0.67327 -1.37913,0.67327 -0.55383,0 -0.90132,-0.40179 -0.90132,-0.91218 z"
         style="font-style:normal;font-variant:normal;font-weight:normal;font-stretch:normal;font-family:'Brandon Text';-inkscape-font-specification:'Brandon Text';fill:#000000"
         id="path3687"
         inkscape:connector-curvature="0" />
      <path
         d="m 392.13071,261.08263 c 0,0.13031 0.1086,0.2389 0.23891,0.2389 l 0.32578,0 c 0.11945,0 0.2389,-0.10859 0.2389,-0.2389 l 0,-7.1237 c 0,-0.11945 -0.11945,-0.23891 -0.2389,-0.23891 l -0.32578,0 c -0.13031,0 -0.23891,0.11946 -0.23891,0.23891 l 0,7.1237 z"
         style="font-style:normal;font-variant:normal;font-weight:normal;font-stretch:normal;font-family:'Brandon Text';-inkscape-font-specification:'Brandon Text';fill:#000000"
         id="path3689"
         inkscape:connector-curvature="0" />
      <path
         d="m 394.29426,259.80123 c 0,1.00992 0.67328,1.63976 1.55288,1.63976 0.77101,0 1.29226,-0.38008 1.55288,-0.6407 l 0.0977,0.33664 c 0.0326,0.10859 0.076,0.1846 0.20633,0.1846 l 0.20633,0 c 0.13031,0 0.2389,-0.10859 0.2389,-0.2389 l 0,-2.77998 c 0,-1.47687 -0.27148,-2.10671 -1.55288,-2.10671 -0.82531,0 -1.47686,0.21719 -1.72663,0.32578 -0.11945,0.0543 -0.19546,0.11946 -0.15203,0.27149 l 0.1086,0.2932 c 0.0434,0.11945 0.10859,0.1846 0.2389,0.13031 0.22805,-0.076 0.80359,-0.2932 1.48772,-0.2932 0.71672,0 0.83617,0.45609 0.82531,1.37913 0,0 -0.54296,-0.16289 -1.07507,-0.16289 -1.29226,0 -2.00897,0.70585 -2.00897,1.66147 z m 0.79273,0 c 0,-0.6407 0.52124,-0.97734 1.21624,-0.97734 0.49953,0 0.90132,0.1086 1.06421,0.19547 l 0,1.02078 c -0.21718,0.32577 -0.76015,0.67327 -1.37913,0.67327 -0.55382,0 -0.90132,-0.40179 -0.90132,-0.91218 z"
         style="font-style:normal;font-variant:normal;font-weight:normal;font-stretch:normal;font-family:'Brandon Text';-inkscape-font-specification:'Brandon Text';fill:#000000"
         id="path3691"
         inkscape:connector-curvature="0" />
      <path
         d="m 401.19755,261.44099 c 1.02078,0 1.70491,-0.6407 1.70491,-1.43343 0,-0.91218 -0.74929,-1.23796 -1.61803,-1.63976 -0.60812,-0.28234 -0.95562,-0.44523 -0.95562,-0.89046 0,-0.2389 0.18461,-0.55382 0.73843,-0.55382 0.46695,0 0.81445,0.16289 1.03163,0.2932 0.1086,0.0652 0.27149,0.0543 0.3475,-0.0869 l 0.10859,-0.20632 c 0.076,-0.14117 0.0543,-0.24977 -0.0543,-0.33664 -0.23891,-0.17375 -0.78187,-0.39094 -1.43343,-0.39094 -1.16195,0 -1.55288,0.79273 -1.55288,1.31398 0,0.85788 0.76015,1.21624 1.42257,1.54202 0.72757,0.35836 1.11851,0.55382 1.11851,1.03163 0,0.39094 -0.3475,0.62984 -0.85789,0.62984 -0.6407,0 -1.07507,-0.31492 -1.24882,-0.44523 -0.14117,-0.0977 -0.22804,-0.0543 -0.2932,0.0652 l -0.15203,0.28234 c -0.0434,0.0869 -0.0217,0.16289 0.0326,0.21718 0.26062,0.23891 0.82531,0.60813 1.66147,0.60813 z"
         style="font-style:normal;font-variant:normal;font-weight:normal;font-stretch:normal;font-family:'Brandon Text';-inkscape-font-specification:'Brandon Text';fill:#000000"
         id="path3693"
         inkscape:connector-curvature="0" />
      <path
         d="m 403.88251,258.80218 c 0,1.43342 1.12937,2.63881 2.51936,2.63881 1.38999,0 2.51936,-1.20539 2.51936,-2.63881 0,-1.41171 -1.12937,-2.60624 -2.51936,-2.60624 -1.38999,0 -2.51936,1.19453 -2.51936,2.60624 z m 0.79273,0 c 0,-1.02078 0.73843,-1.87866 1.72663,-1.87866 0.9882,0 1.71577,0.85788 1.71577,1.87866 0,1.04249 -0.72757,1.91123 -1.71577,1.91123 -0.9882,0 -1.72663,-0.86874 -1.72663,-1.91123 z"
         style="font-style:normal;font-variant:normal;font-weight:normal;font-stretch:normal;font-family:'Brandon Text';-inkscape-font-specification:'Brandon Text';fill:#000000"
         id="path3695"
         inkscape:connector-curvature="0" />
      <path
         d="m 409.96966,258.82389 c 0,1.50945 1.04249,2.6171 2.53021,2.6171 0.83617,0 1.50945,-0.4561 1.88952,-1.00992 0.0869,-0.13031 0.0434,-0.2389 -0.0652,-0.3475 l -0.0652,-0.0652 c -0.14117,-0.14117 -0.28234,-0.18461 -0.42351,-0.0217 -0.28235,0.32578 -0.60812,0.71671 -1.36827,0.71671 -0.9339,0 -1.6832,-0.83616 -1.6832,-1.90037 0,-1.0425 0.76015,-1.88952 1.71577,-1.88952 0.51039,0 0.91218,0.15203 1.25968,0.54296 0.0977,0.1086 0.19547,0.21719 0.35836,0.076 l 0.17375,-0.16289 c 0.11945,-0.0977 0.14117,-0.23891 0.0434,-0.35836 -0.46695,-0.5321 -1.07507,-0.82531 -1.82436,-0.82531 -1.45514,0 -2.54107,1.15109 -2.54107,2.62795 z"
         style="font-style:normal;font-variant:normal;font-weight:normal;font-stretch:normal;font-family:'Brandon Text';-inkscape-font-specification:'Brandon Text';fill:#000000"
         id="path3697"
         inkscape:connector-curvature="0" />
      <path
         d="m 416.10516,255.01228 c 0.33664,0 0.59726,-0.27148 0.59726,-0.5864 0,-0.3475 -0.26062,-0.60812 -0.59726,-0.60812 -0.32578,0 -0.5864,0.26062 -0.5864,0.60812 0,0.31492 0.26062,0.5864 0.5864,0.5864 z m -0.38008,6.07035 c 0,0.13031 0.1086,0.2389 0.23891,0.2389 l 0.32578,0 c 0.11945,0 0.2389,-0.10859 0.2389,-0.2389 l 0,-4.53919 c 0,-0.11945 -0.11945,-0.2389 -0.2389,-0.2389 l -0.32578,0 c -0.13031,0 -0.23891,0.11945 -0.23891,0.2389 l 0,4.53919 z"
         style="font-style:normal;font-variant:normal;font-weight:normal;font-stretch:normal;font-family:'Brandon Text';-inkscape-font-specification:'Brandon Text';fill:#000000"
         id="path3699"
         inkscape:connector-curvature="0" />
      <path
         d="m 417.83688,259.80123 c 0,1.00992 0.67328,1.63976 1.55288,1.63976 0.77101,0 1.29226,-0.38008 1.55288,-0.6407 l 0.0977,0.33664 c 0.0326,0.10859 0.076,0.1846 0.20633,0.1846 l 0.20633,0 c 0.13031,0 0.2389,-0.10859 0.2389,-0.2389 l 0,-2.77998 c 0,-1.47687 -0.27148,-2.10671 -1.55288,-2.10671 -0.8253,0 -1.47686,0.21719 -1.72663,0.32578 -0.11945,0.0543 -0.19546,0.11946 -0.15203,0.27149 l 0.1086,0.2932 c 0.0434,0.11945 0.10859,0.1846 0.2389,0.13031 0.22805,-0.076 0.80359,-0.2932 1.48773,-0.2932 0.71671,0 0.83616,0.45609 0.8253,1.37913 0,0 -0.54296,-0.16289 -1.07507,-0.16289 -1.29226,0 -2.00897,0.70585 -2.00897,1.66147 z m 0.79273,0 c 0,-0.6407 0.52125,-0.97734 1.21624,-0.97734 0.49953,0 0.90132,0.1086 1.06421,0.19547 l 0,1.02078 c -0.21718,0.32577 -0.76015,0.67327 -1.37913,0.67327 -0.55382,0 -0.90132,-0.40179 -0.90132,-0.91218 z"
         style="font-style:normal;font-variant:normal;font-weight:normal;font-stretch:normal;font-family:'Brandon Text';-inkscape-font-specification:'Brandon Text';fill:#000000"
         id="path3701"
         inkscape:connector-curvature="0" />
      <path
         d="m 423.39362,261.08263 c 0,0.13031 0.10859,0.2389 0.2389,0.2389 l 0.32578,0 c 0.11945,0 0.2389,-0.10859 0.2389,-0.2389 l 0,-7.1237 c 0,-0.11945 -0.11945,-0.23891 -0.2389,-0.23891 l -0.32578,0 c -0.13031,0 -0.2389,0.11946 -0.2389,0.23891 l 0,7.1237 z"
         style="font-style:normal;font-variant:normal;font-weight:normal;font-stretch:normal;font-family:'Brandon Text';-inkscape-font-specification:'Brandon Text';fill:#000000"
         id="path3703"
         inkscape:connector-curvature="0" />
    </g>
    <path
       d="m 340.51395,263.80421 c 0,-1.46772 -1.3251,-2.7934 -2.7932,-2.7934 l -11.17268,0 c -1.46812,0 -2.7932,1.32568 -2.7932,2.7934 l 0,11.17233 c 0,1.46773 1.32508,2.7934 2.79338,2.7934 l 5.58615,0 0,-6.33111 -2.04833,0 0,-2.79322 2.04833,0 0,-1.08845 c 0,-1.87656 1.40944,-3.56692 3.14232,-3.56692 l 2.25783,0 0,2.79322 -2.25783,0 c -0.24709,0 -0.53534,0.29997 -0.53534,0.74937 l 0,1.11278 2.79317,0 0,2.79322 -2.79317,0 0,6.33111 2.97937,0 c 1.4681,0 2.7932,-1.32567 2.7932,-2.7934 l 0,-11.17233 z"
       id="Facebook__x28_alt_x29_-2"
       inkscape:connector-curvature="0"
       style="fill:#000000" />
    <g
       style="font-style:normal;font-variant:normal;font-weight:500;font-stretch:normal;font-size:10.85929871px;line-height:125%;font-family:'Brandon Text';-inkscape-font-specification:'Brandon Text, Medium';text-align:start;letter-spacing:0px;word-spacing:0px;writing-mode:lr-tb;text-anchor:start;fill:#000000;fill-opacity:1;stroke:none;stroke-width:1px;stroke-linecap:butt;stroke-linejoin:miter;stroke-opacity:1"
       id="text7952"
       transform="matrix(1.802658,0,0,1.802658,-322.48938,-195.65155)">
      <path
         d="m 376.50384,228.70749 1.50945,3.76818 c 0.0326,0.0651 0.10859,0.13031 0.21718,0.13031 l 0.0652,0 c 0.0977,0 0.18461,-0.0543 0.20633,-0.13031 l 1.36827,-4.7238 c 0.0543,-0.16289 0,-0.28234 -0.17375,-0.28234 l -0.38008,0 c -0.0977,0 -0.18461,0.0543 -0.20632,0.14117 l -0.92304,3.42068 -0.0217,0 -1.40085,-3.55099 c -0.0217,-0.0652 -0.1086,-0.11945 -0.20633,-0.11945 l -0.0652,0 c -0.11945,0 -0.19546,0.0543 -0.21718,0.11945 l -1.41171,3.54013 -0.0217,0 -0.92304,-3.40982 c -0.0217,-0.0869 -0.10859,-0.14117 -0.22804,-0.14117 l -0.36922,0 c -0.19547,0 -0.23891,0.11945 -0.19547,0.28234 l 1.38999,4.7238 c 0.0326,0.076 0.0977,0.13031 0.21719,0.13031 l 0.0651,0 c 0.11946,0 0.18461,-0.0652 0.20633,-0.13031 l 1.47687,-3.76818 0.0217,0 z"
         style="font-style:normal;font-variant:normal;font-weight:normal;font-stretch:normal;font-family:'Brandon Text';-inkscape-font-specification:'Brandon Text';fill:#000000"
         id="path3652"
         inkscape:connector-curvature="0" />
      <path
         d="m 384.11808,228.70749 1.50944,3.76818 c 0.0326,0.0651 0.10859,0.13031 0.21719,0.13031 l 0.0651,0 c 0.0977,0 0.18461,-0.0543 0.20633,-0.13031 l 1.36827,-4.7238 c 0.0543,-0.16289 0,-0.28234 -0.17375,-0.28234 l -0.38007,0 c -0.0977,0 -0.18461,0.0543 -0.20633,0.14117 l -0.92304,3.42068 -0.0217,0 -1.40085,-3.55099 c -0.0217,-0.0652 -0.10859,-0.11945 -0.20632,-0.11945 l -0.0652,0 c -0.11945,0 -0.19547,0.0543 -0.21719,0.11945 l -1.41171,3.54013 -0.0217,0 -0.92304,-3.40982 c -0.0217,-0.0869 -0.1086,-0.14117 -0.22805,-0.14117 l -0.36922,0 c -0.19546,0 -0.2389,0.11945 -0.19546,0.28234 l 1.38999,4.7238 c 0.0326,0.076 0.0977,0.13031 0.21718,0.13031 l 0.0652,0 c 0.11945,0 0.18461,-0.0652 0.20633,-0.13031 l 1.47686,-3.76818 0.0217,0 z"
         style="font-style:normal;font-variant:normal;font-weight:normal;font-stretch:normal;font-family:'Brandon Text';-inkscape-font-specification:'Brandon Text';fill:#000000"
         id="path3654"
         inkscape:connector-curvature="0" />
      <path
         d="m 391.73231,228.70749 1.50945,3.76818 c 0.0326,0.0651 0.10859,0.13031 0.21718,0.13031 l 0.0652,0 c 0.0977,0 0.18461,-0.0543 0.20632,-0.13031 l 1.36828,-4.7238 c 0.0543,-0.16289 0,-0.28234 -0.17375,-0.28234 l -0.38008,0 c -0.0977,0 -0.18461,0.0543 -0.20632,0.14117 l -0.92304,3.42068 -0.0217,0 -1.40085,-3.55099 c -0.0217,-0.0652 -0.1086,-0.11945 -0.20633,-0.11945 l -0.0652,0 c -0.11945,0 -0.19546,0.0543 -0.21718,0.11945 l -1.41171,3.54013 -0.0217,0 -0.92304,-3.40982 c -0.0217,-0.0869 -0.10859,-0.14117 -0.22804,-0.14117 l -0.36922,0 c -0.19547,0 -0.23891,0.11945 -0.19547,0.28234 l 1.38999,4.7238 c 0.0326,0.076 0.0977,0.13031 0.21719,0.13031 l 0.0652,0 c 0.11946,0 0.18461,-0.0652 0.20633,-0.13031 l 1.47687,-3.76818 0.0217,0 z"
         style="font-style:normal;font-variant:normal;font-weight:normal;font-stretch:normal;font-family:'Brandon Text';-inkscape-font-specification:'Brandon Text';fill:#000000"
         id="path3656"
         inkscape:connector-curvature="0" />
      <path
         d="m 395.97338,231.87841 c 0,0.39093 0.31492,0.72757 0.70585,0.72757 0.4018,0 0.71672,-0.33664 0.71672,-0.72757 0,-0.39094 -0.31492,-0.70586 -0.71672,-0.70586 -0.39093,0 -0.70585,0.31492 -0.70585,0.70586 z"
         style="font-style:normal;font-variant:normal;font-weight:normal;font-stretch:normal;font-family:'Brandon Text';-inkscape-font-specification:'Brandon Text';fill:#000000"
         id="path3658"
         inkscape:connector-curvature="0" />
      <path
         d="m 398.78797,230.4124 c 0,1.32483 0.3475,2.19358 1.79179,2.19358 0.90132,0 1.36827,-0.45609 1.55288,-0.65156 l 0.0977,0.31492 c 0.0326,0.13031 0.0869,0.21719 0.22805,0.21719 l 0.17375,0 c 0.11945,0 0.22804,-0.1086 0.22804,-0.23891 l 0,-4.53918 c 0,-0.11946 -0.10859,-0.23891 -0.22804,-0.23891 l -0.33664,0 c -0.13031,0 -0.22805,0.11945 -0.22805,0.23891 l 0,3.44239 c -0.22804,0.26063 -0.67327,0.72758 -1.42257,0.72758 -0.72757,0 -1.05335,-0.45609 -1.05335,-1.45515 l 0,-2.71482 c 0,-0.11946 -0.10859,-0.23891 -0.2389,-0.23891 l -0.32578,0 c -0.14117,0 -0.23891,0.11945 -0.23891,0.23891 l 0,2.70396 z"
         style="font-style:normal;font-variant:normal;font-weight:normal;font-stretch:normal;font-family:'Brandon Text';-inkscape-font-specification:'Brandon Text';fill:#000000"
         id="path3660"
         inkscape:connector-curvature="0" />
      <path
         d="m 404.15671,230.96622 c 0,1.00992 0.67328,1.63976 1.55288,1.63976 0.77101,0 1.29226,-0.38008 1.55288,-0.6407 l 0.0977,0.33664 c 0.0326,0.10859 0.076,0.18461 0.20633,0.18461 l 0.20633,0 c 0.13031,0 0.2389,-0.1086 0.2389,-0.23891 l 0,-2.77998 c 0,-1.47686 -0.27148,-2.1067 -1.55288,-2.1067 -0.82531,0 -1.47686,0.21718 -1.72663,0.32578 -0.11945,0.0543 -0.19547,0.11945 -0.15203,0.27148 l 0.10859,0.2932 c 0.0434,0.11945 0.1086,0.18461 0.23891,0.13031 0.22804,-0.076 0.80359,-0.2932 1.48772,-0.2932 0.71672,0 0.83617,0.45609 0.82531,1.37913 0,0 -0.54296,-0.16289 -1.07507,-0.16289 -1.29226,0 -2.00897,0.70586 -2.00897,1.66147 z m 0.79273,0 c 0,-0.64069 0.52124,-0.97733 1.21624,-0.97733 0.49953,0 0.90132,0.10859 1.06421,0.19547 l 0,1.02077 c -0.21719,0.32578 -0.76015,0.67328 -1.37913,0.67328 -0.55382,0 -0.90132,-0.4018 -0.90132,-0.91219 z"
         style="font-style:normal;font-variant:normal;font-weight:normal;font-stretch:normal;font-family:'Brandon Text';-inkscape-font-specification:'Brandon Text';fill:#000000"
         id="path3662"
         inkscape:connector-curvature="0" />
      <path
         d="m 409.71345,232.24762 c 0,0.13031 0.10859,0.23891 0.2389,0.23891 l 0.32578,0 c 0.11945,0 0.23891,-0.1086 0.23891,-0.23891 l 0,-7.1237 c 0,-0.11945 -0.11946,-0.2389 -0.23891,-0.2389 l -0.32578,0 c -0.13031,0 -0.2389,0.11945 -0.2389,0.2389 l 0,7.1237 z"
         style="font-style:normal;font-variant:normal;font-weight:normal;font-stretch:normal;font-family:'Brandon Text';-inkscape-font-specification:'Brandon Text';fill:#000000"
         id="path3664"
         inkscape:connector-curvature="0" />
      <path
         d="m 411.87699,230.96622 c 0,1.00992 0.67328,1.63976 1.55288,1.63976 0.77101,0 1.29226,-0.38008 1.55288,-0.6407 l 0.0977,0.33664 c 0.0326,0.10859 0.076,0.18461 0.20632,0.18461 l 0.20633,0 c 0.13031,0 0.2389,-0.1086 0.2389,-0.23891 l 0,-2.77998 c 0,-1.47686 -0.27148,-2.1067 -1.55288,-2.1067 -0.8253,0 -1.47686,0.21718 -1.72662,0.32578 -0.11946,0.0543 -0.19547,0.11945 -0.15203,0.27148 l 0.10859,0.2932 c 0.0434,0.11945 0.10859,0.18461 0.2389,0.13031 0.22805,-0.076 0.80359,-0.2932 1.48773,-0.2932 0.71671,0 0.83616,0.45609 0.8253,1.37913 0,0 -0.54296,-0.16289 -1.07507,-0.16289 -1.29225,0 -2.00897,0.70586 -2.00897,1.66147 z m 0.79273,0 c 0,-0.64069 0.52125,-0.97733 1.21624,-0.97733 0.49953,0 0.90132,0.10859 1.06421,0.19547 l 0,1.02077 c -0.21718,0.32578 -0.76015,0.67328 -1.37913,0.67328 -0.55382,0 -0.90132,-0.4018 -0.90132,-0.91219 z"
         style="font-style:normal;font-variant:normal;font-weight:normal;font-stretch:normal;font-family:'Brandon Text';-inkscape-font-specification:'Brandon Text';fill:#000000"
         id="path3666"
         inkscape:connector-curvature="0" />
      <path
         d="m 417.43373,232.24762 c 0,0.13031 0.10859,0.23891 0.2389,0.23891 l 0.32578,0 c 0.11945,0 0.23891,-0.1086 0.23891,-0.23891 l 0,-7.1237 c 0,-0.11945 -0.11946,-0.2389 -0.23891,-0.2389 l -0.32578,0 c -0.13031,0 -0.2389,0.11945 -0.2389,0.2389 l 0,7.1237 z"
         style="font-style:normal;font-variant:normal;font-weight:normal;font-stretch:normal;font-family:'Brandon Text';-inkscape-font-specification:'Brandon Text';fill:#000000"
         id="path3668"
         inkscape:connector-curvature="0" />
      <path
         d="m 419.59727,230.96622 c 0,1.00992 0.67328,1.63976 1.55288,1.63976 0.77101,0 1.29226,-0.38008 1.55288,-0.6407 l 0.0977,0.33664 c 0.0326,0.10859 0.076,0.18461 0.20632,0.18461 l 0.20633,0 c 0.13031,0 0.2389,-0.1086 0.2389,-0.23891 l 0,-2.77998 c 0,-1.47686 -0.27148,-2.1067 -1.55288,-2.1067 -0.8253,0 -1.47686,0.21718 -1.72662,0.32578 -0.11946,0.0543 -0.19547,0.11945 -0.15203,0.27148 l 0.10859,0.2932 c 0.0434,0.11945 0.10859,0.18461 0.2389,0.13031 0.22805,-0.076 0.80359,-0.2932 1.48773,-0.2932 0.71671,0 0.83616,0.45609 0.8253,1.37913 0,0 -0.54296,-0.16289 -1.07507,-0.16289 -1.29225,0 -2.00897,0.70586 -2.00897,1.66147 z m 0.79273,0 c 0,-0.64069 0.52125,-0.97733 1.21624,-0.97733 0.49953,0 0.90132,0.10859 1.06421,0.19547 l 0,1.02077 c -0.21718,0.32578 -0.76015,0.67328 -1.37913,0.67328 -0.55382,0 -0.90132,-0.4018 -0.90132,-0.91219 z"
         style="font-style:normal;font-variant:normal;font-weight:normal;font-stretch:normal;font-family:'Brandon Text';-inkscape-font-specification:'Brandon Text';fill:#000000"
         id="path3670"
         inkscape:connector-curvature="0" />
      <path
         d="m 424.86081,231.87841 c 0,0.39093 0.31492,0.72757 0.70585,0.72757 0.4018,0 0.71672,-0.33664 0.71672,-0.72757 0,-0.39094 -0.31492,-0.70586 -0.71672,-0.70586 -0.39093,0 -0.70585,0.31492 -0.70585,0.70586 z"
         style="font-style:normal;font-variant:normal;font-weight:normal;font-stretch:normal;font-family:'Brandon Text';-inkscape-font-specification:'Brandon Text';fill:#000000"
         id="path3672"
         inkscape:connector-curvature="0" />
      <path
         d="m 427.40392,229.96717 c 0,1.43343 1.12937,2.63881 2.51936,2.63881 1.38999,0 2.51936,-1.20538 2.51936,-2.63881 0,-1.41171 -1.12937,-2.60623 -2.51936,-2.60623 -1.38999,0 -2.51936,1.19452 -2.51936,2.60623 z m 0.79273,0 c 0,-1.02077 0.73843,-1.87866 1.72663,-1.87866 0.98819,0 1.71577,0.85789 1.71577,1.87866 0,1.04249 -0.72758,1.91124 -1.71577,1.91124 -0.9882,0 -1.72663,-0.86875 -1.72663,-1.91124 z"
         style="font-style:normal;font-variant:normal;font-weight:normal;font-stretch:normal;font-family:'Brandon Text';-inkscape-font-specification:'Brandon Text';fill:#000000"
         id="path3674"
         inkscape:connector-curvature="0" />
      <path
         d="m 433.81685,232.24762 c 0,0.13031 0.10859,0.23891 0.2389,0.23891 l 0.32578,0 c 0.11945,0 0.23891,-0.1086 0.23891,-0.23891 l 0,-3.47497 c 0,0 0.39093,-0.6407 1.35741,-0.6407 0.2389,0 0.42351,0.0869 0.54296,0.14117 0.11945,0.0543 0.23891,0.0434 0.2932,-0.11945 l 0.14117,-0.39094 c 0.11946,-0.3475 -0.49952,-0.40179 -0.8796,-0.40179 -1.04249,0 -1.54202,0.6407 -1.54202,0.6407 l -0.0869,-0.35836 c -0.0326,-0.11945 -0.11946,-0.17375 -0.21719,-0.17375 l -0.17375,0 c -0.13031,0 -0.2389,0.11945 -0.2389,0.23891 l 0,4.53918 z"
         style="font-style:normal;font-variant:normal;font-weight:normal;font-stretch:normal;font-family:'Brandon Text';-inkscape-font-specification:'Brandon Text';fill:#000000"
         id="path3676"
         inkscape:connector-curvature="0" />
      <path
         d="m 438.34619,229.96717 c 0,-0.97734 0.61898,-1.8678 1.61804,-1.8678 0.81445,0 1.32483,0.60812 1.32483,0.60812 l 0,2.7474 c 0,0 -0.57554,0.41266 -1.27053,0.41266 -0.95562,0 -1.67234,-0.81445 -1.67234,-1.90038 z m 3.74646,-2.25873 c 0,-0.11946 -0.11945,-0.23891 -0.24976,-0.23891 l -0.15203,0 c -0.13031,0 -0.18461,0.076 -0.23891,0.17375 l -0.076,0.22804 c 0,0 -0.59726,-0.51038 -1.49858,-0.51038 -1.36828,0 -2.34561,1.18366 -2.34561,2.61709 0,1.466 0.99905,2.62795 2.37818,2.62795 0.82531,0 1.38999,-0.44523 1.38999,-0.44523 l 0,0.35835 c 0,1.17281 -0.60812,1.60718 -1.40085,1.60718 -0.55382,0 -0.98819,-0.30406 -1.25967,-0.53211 -0.11946,-0.10859 -0.24977,-0.10859 -0.32578,0.0109 l -0.21719,0.31492 c -0.0543,0.076 -0.0326,0.21719 0.0543,0.2932 0.26062,0.23891 0.95562,0.65156 1.74834,0.65156 1.14023,0 2.19358,-0.62984 2.19358,-2.34561 l 0,-4.81066 z"
         style="font-style:normal;font-variant:normal;font-weight:normal;font-stretch:normal;font-family:'Brandon Text';-inkscape-font-specification:'Brandon Text';fill:#000000"
         id="path3678"
         inkscape:connector-curvature="0" />
    </g>
    <g
       id="g8014"
       transform="matrix(0.52372115,0,0,0.52372115,323.73883,211.07106)"
       style="fill:#000000">
      <g
         id="icomoon-ignore-5"
         style="fill:#000000">
        <path
           style="fill:#000000;stroke:#449fdb;stroke-width:1"
           d="M 0,0 0,0"
           id="line8004"
           inkscape:connector-curvature="0" />
      </g>
      <path
         id="path8006"
         d="M 32,11.192 C 32,13.891 30.837,16.318 28.985,18 L 29,18 19,28 c -1,1 -2,2 -3,2 -1,0 -2,-1 -3,-2 L 3.015,18 C 1.163,16.318 0,13.891 0,11.192 0,6.115 4.116,2 9.192,2 11.891,2 14.318,3.163 16,5.015 17.682,3.163 20.109,2 22.808,2 27.885,2 32,6.116 32,11.192 Z"
         inkscape:connector-curvature="0"
         style="fill:#000000" />
    </g>
    <g
       id="g8116"
       transform="matrix(0.72047027,0,0,0.72047027,319.96334,232.7181)"
       style="fill:#000000">
      <g
         id="icomoon-ignore-69"
         style="fill:#000000">
        <path
           style="fill:#000000;stroke:#449fdb;stroke-width:1"
           d="M 0,0 0,0"
           id="line8106"
           inkscape:connector-curvature="0" />
      </g>
      <path
         id="path8108"
         d="m 2.55,8.458 c 0.781,0.421 11.598,6.23 12.002,6.446 0.402,0.216 0.923,0.32 1.448,0.32 0.526,0 1.048,-0.104 1.45,-0.322 0.403,-0.216 11.219,-6.026 12,-6.446 0.782,-0.419 1.522,-1.736 0.086,-1.736 l -27.07,0 c -1.435,0 -0.698,1.317 0.085,1.738 z m 27.231,3.2 c -0.888,0.464 -11.787,6.162 -12.331,6.446 -0.544,0.284 -0.923,0.322 -1.45,0.322 -0.525,0 -0.904,-0.037 -1.448,-0.322 C 14.008,17.819 3.107,12.12 2.221,11.658 1.595,11.332 1.6,11.714 1.6,12.008 c 0,0.294 0,11.736 0,11.736 0,0.672 0.894,1.536 1.587,1.536 l 25.627,0 c 0.694,0 1.586,-0.864 1.586,-1.534 0,0 0,-11.442 0,-11.736 0,-0.296 0.006,-0.678 -0.619,-0.352 z"
         inkscape:connector-curvature="0"
         style="fill:#000000" />
    </g>
  </g>
</svg>
