<?xml version="1.0" encoding="UTF-8" standalone="no"?>
<!-- Created with Inkscape (http://www.inkscape.org/) -->

<svg
   xmlns:dc="http://purl.org/dc/elements/1.1/"
   xmlns:cc="http://creativecommons.org/ns#"
   xmlns:rdf="http://www.w3.org/1999/02/22-rdf-syntax-ns#"
   xmlns:svg="http://www.w3.org/2000/svg"
   xmlns="http://www.w3.org/2000/svg"
   xmlns:sodipodi="http://sodipodi.sourceforge.net/DTD/sodipodi-0.dtd"
   xmlns:inkscape="http://www.inkscape.org/namespaces/inkscape"
   id="svg3725"
   version="1.1"
   inkscape:version="0.91 r"
   width="16"
   height="16"
   viewBox="0 0 16 16"
   sodipodi:docname="logo-favicon.svg"
   inkscape:export-filename="/home/yaco/Proyectos/UALALA/Comunicacion/Grafica/Logos/logo-favicon.png"
   inkscape:export-xdpi="88"
   inkscape:export-ydpi="88">
  <metadata
     id="metadata3731">
    <rdf:RDF>
      <cc:Work
         rdf:about="">
        <dc:format>image/svg+xml</dc:format>
        <dc:type
           rdf:resource="http://purl.org/dc/dcmitype/StillImage" />
        <dc:title></dc:title>
      </cc:Work>
    </rdf:RDF>
  </metadata>
  <defs
     id="defs3729" />
  <sodipodi:namedview
     pagecolor="#ffffff"
     bordercolor="#666666"
     borderopacity="1"
     objecttolerance="10"
     gridtolerance="10"
     guidetolerance="10"
     inkscape:pageopacity="0"
     inkscape:pageshadow="2"
     inkscape:window-width="1080"
     inkscape:window-height="1902"
     id="namedview3727"
     showgrid="true"
     fit-margin-top="0"
     fit-margin-left="0"
     fit-margin-right="0"
     fit-margin-bottom="0"
     inkscape:zoom="11.313708"
     inkscape:cx="-2.0177172"
     inkscape:cy="35.04947"
     inkscape:window-x="418"
     inkscape:window-y="-3"
     inkscape:window-maximized="1"
     inkscape:current-layer="svg3725">
    <inkscape:grid
       type="xygrid"
       id="grid4608" />
  </sodipodi:namedview>
  <path
     sodipodi:nodetypes="scssccscscscsssscscccssscsccsccss"
     inkscape:connector-curvature="0"
     id="path4610"
     d="M 5.9168214,1.0033313 C 5.7880239,0.99214692 5.6545119,1.0098 5.4990193,1.04625 4.2615133,1.3370861 3.8240594,1.9522233 3.9999476,3.1538235 4.0857596,3.740037 4.3479078,4.5642715 4.5825329,4.9855927 4.8171614,5.4069176 5.0098311,5.8167938 5.0107161,5.8964185 5.0117261,5.9760405 4.2477031,6.5009207 3.3131262,7.0627873 1.3996408,8.213213 0.68425347,9.3020936 1.1263714,10.390977 c 0.3847773,0.947649 2.5431343,1.229982 4.2320795,0.553636 0.4354483,-0.174388 0.4844099,-0.0072 0.4844099,1.655995 0,1.445487 0.095454,1.884602 0.4363973,2.007131 0.2400261,0.08624 0.5482821,0.432519 0.6850917,0.76947 0.2853197,0.702705 1.4875265,0.856873 1.7468983,0.223964 0.087629,-0.213824 0.3498749,-0.388791 0.583016,-0.388791 0.2331446,0 0.4238592,-0.174944 0.4238592,-0.388791 0,-0.213824 0.1024629,-0.388787 0.227498,-0.388787 0.1250357,0 0.2569287,-0.609622 0.2932377,-1.354689 0.03631,-0.745066 0.118029,-1.403645 0.181656,-1.463239 0.06363,-0.05957 0.678567,0.09331 1.366721,0.339395 0.785791,0.28101 1.637833,0.394721 2.290126,0.306161 0.571242,-0.07757 1.254894,-0.145251 1.519396,-0.150641 0.456174,-0.0093 0.511674,-0.698767 0.235282,-2.9256503 -0.01325,-0.1069116 -0.183487,-0.1943954 -0.378011,-0.1943954 -0.194526,0 -0.566678,-0.2332717 -0.827385,-0.5183863 -0.260709,-0.2851117 -0.654956,-0.5183862 -0.875828,-0.5183862 -0.783896,0 -0.691926,-0.472849 0.284156,-1.4612071 C 14.578911,5.9430123 15.258923,5.0664624 15.546151,4.5457755 16.064138,3.6067703 16.063767,3.5932684 15.478251,2.896248 14.949937,2.2673417 14.761147,2.2097792 13.682054,2.348293 12.543693,2.4943931 11.475951,3.0318369 10.072352,4.1650697 9.566191,4.5737281 9.3828998,4.6032153 9.034327,4.3323489 8.8015021,4.1514113 8.6084052,3.8718327 8.6052824,3.7110935 8.6022538,3.5503497 8.0649453,2.8467565 7.4115624,2.1474326 6.6467828,1.3288568 6.3032073,1.0366744 5.9168214,1.0033313 Z"
     style="fill:#f9f9f9;fill-opacity:1" />
  <path
     style="fill:#cb0000;fill-opacity:1"
     d="m 4.9168214,0.00333058 c -0.1287975,-0.01118442 -0.2623095,0.0064687 -0.4178021,0.0429187 -1.237506,0.2908361 -1.6749599,0.9059733 -1.4990717,2.10757342 0.085812,0.5862135 0.3479602,1.410448 0.5825853,1.8317692 0.2346285,0.4213249 0.4272982,0.8312011 0.4281832,0.9108258 0.00101,0.079622 -0.763013,0.6045022 -1.6975899,1.1663688 -1.91348535,1.1504257 -2.62887272,2.2393063 -2.18675482,3.3281899 0.38477734,0.9476496 2.54313432,1.2299826 4.23207952,0.553636 0.4354483,-0.174388 0.4844099,-0.0072 0.4844099,1.6559956 0,1.445487 0.095454,1.884602 0.4363973,2.007131 0.2400261,0.08624 0.5482821,0.432519 0.6850917,0.76947 0.2853197,0.702705 1.4875265,0.856873 1.7468983,0.223964 0.087629,-0.213824 0.3498749,-0.388791 0.583016,-0.388791 0.2331446,0 0.4238592,-0.174944 0.4238592,-0.388791 0,-0.213824 0.1024629,-0.388787 0.227498,-0.388787 0.1250353,0 0.2569287,-0.609622 0.2932376,-1.354689 0.036305,-0.745066 0.1180295,-1.403645 0.1816559,-1.463239 0.063627,-0.05957 0.6785672,0.09331 1.3667212,0.339395 0.785791,0.28101 1.637833,0.394721 2.290126,0.306161 0.571242,-0.07757 1.254894,-0.145251 1.519396,-0.150641 0.456174,-0.0093 0.511674,-0.698767 0.235282,-2.9256511 -0.01325,-0.1069116 -0.183487,-0.1943954 -0.378011,-0.1943954 -0.194526,0 -0.566678,-0.2332717 -0.827385,-0.5183863 C 13.365935,7.1882465 12.971688,6.954972 12.750816,6.954972 c -0.783896,0 -0.691926,-0.472849 0.284156,-1.4612071 0.543939,-0.5507534 1.223951,-1.4273033 1.511179,-1.9479902 0.517987,-0.9390052 0.517616,-0.9525071 -0.0679,-1.6495275 C 13.949937,1.2673409 13.761147,1.2097784 12.682054,1.3482922 11.543693,1.4943923 10.475951,2.0318361 9.0723522,3.1650689 8.566191,3.5737273 8.3828998,3.6032145 8.034327,3.3323481 7.8015021,3.1514105 7.6084052,2.8718319 7.6052824,2.7110927 7.6022538,2.5503489 7.0649453,1.8467557 6.4115624,1.1474318 5.6467828,0.32885608 5.3032073,0.03667368 4.9168214,0.00333058 Z"
     id="path3763"
     inkscape:connector-curvature="0"
     sodipodi:nodetypes="scssccscscscsssscscccssscsccsccss" />
</svg>
